# xmcd
#
# Track frame offsets:
#        150
#        19270
#        34690
#        47950
#        64870
#        86107
#        97502
#        117280
#        139012
#        156810
#
# Disc length: 2317 seconds
#
# Revision: 2
# Processed by: cddbd v1.5.1PL2 Copyright (c) Steve Scherf et al.
# Submitted via: ExactAudioCopy v0.95a5
#
DISCID=7c090b0a
DTITLE=Robert Palmer - Heavy Nova
DYEAR=1999
DGENRE=
TTITLE0=Simply Irresistible
TTITLE1=More Than Ever
TTITLE2=Change His Ways
TTITLE3=Disturbing Behavior
TTITLE4=Early In The Morning
TTITLE5=It Could Happen To You
TTITLE6=She Makes My Day
TTITLE7=Between Us
TTITLE8=Casting A Spell
TTITLE9=Tell Me I'm Not Dreaming
EXTD=Produced by Robert Palmer\n\n1988 EMI-Manhattan Records\nD-100035
EXTT0=
EXTT1=
EXTT2=
EXTT3=
EXTT4=
EXTT5=
EXTT6=
EXTT7=
EXTT8=
EXTT9=
PLAYORDER=
